# Blender v2.78 (sub 0) OBJ File: '17.blend'
# www.blender.org
mtllib Seal_01.mtl
o Seal_Cube.032
v 2.162040 8.660607 1.267753
v 2.118522 8.633214 1.191919
v 2.059387 8.634193 1.131949
v 2.205821 8.740868 1.261709
v 2.172744 8.727018 1.151923
v 2.101672 8.728195 1.079849
v 2.213695 8.824482 1.255311
v 2.182207 8.827510 1.144233
v 2.111136 8.828688 1.072159
v 1.984634 8.663548 1.087844
v 1.904886 8.648626 1.130421
v 1.845428 8.658725 1.189217
v 1.992605 8.744400 1.045486
v 1.881772 8.748738 1.077674
v 1.810312 8.760876 1.148338
v 2.000479 8.828014 1.039088
v 1.891236 8.849230 1.069984
v 1.819776 8.861367 1.140648
v 1.806259 8.693844 1.264233
v 1.845007 8.670606 1.343942
v 1.904143 8.669625 1.403911
v 1.778226 8.780812 1.257480
v 1.809713 8.777784 1.368557
v 1.880785 8.776607 1.440631
v 1.786100 8.864427 1.251081
v 1.819177 8.878277 1.360867
v 1.890249 8.877099 1.432941
v 1.983665 8.690905 1.444142
v 2.058644 8.655193 1.405440
v 2.118102 8.645094 1.346644
v 1.991441 8.777280 1.473702
v 2.100685 8.756064 1.442807
v 2.172145 8.743927 1.372142
v 1.999315 8.860894 1.467304
v 2.110149 8.856557 1.435116
v 2.181608 8.844419 1.364452
v 1.976434 8.602841 1.343474
v 1.905362 8.604019 1.271400
v 2.047894 8.590704 1.272810
v 1.976822 8.591882 1.200735
v 2.185662 8.911450 1.248557
v 2.146914 8.934690 1.168848
v 2.087778 8.935669 1.108879
v 2.008256 8.914390 1.068649
v 2.146493 8.946569 1.323573
v 2.086559 9.001275 1.241390
v 2.015487 9.002453 1.169316
v 1.933277 8.950102 1.107350
v 2.087034 8.956668 1.382370
v 2.015099 9.013412 1.312055
v 1.944027 9.014589 1.239981
v 1.873819 8.960200 1.166147
v 2.007287 8.941747 1.424946
v 1.932534 8.971101 1.380841
v 1.873398 8.972080 1.320872
v 1.829881 8.944687 1.245038
v 1.233478 8.557137 -0.920307
v 1.242327 8.518498 -1.002913
v 1.248790 8.515821 -1.086849
v 1.305963 8.604692 -0.890653
v 1.349374 8.558997 -0.987432
v 1.357141 8.555779 -1.088312
v 1.361272 8.668176 -0.888419
v 1.415847 8.635297 -0.984748
v 1.423615 8.632079 -1.085627
v 1.252865 8.549106 -1.172117
v 1.174882 8.584363 -1.204836
v 1.111688 8.639651 -1.211465
v 1.329265 8.595038 -1.193290
v 1.251949 8.653334 -1.256241
v 1.176000 8.719783 -1.264208
v 1.384573 8.658523 -1.191057
v 1.318422 8.729632 -1.253557
v 1.242473 8.796082 -1.261524
v 1.063284 8.714972 -1.192004
v 1.020942 8.715169 -1.110751
v 1.014479 8.717847 -1.026815
v 1.101416 8.794386 -1.217192
v 1.046840 8.827266 -1.120863
v 1.039073 8.830483 -1.019984
v 1.156725 8.857870 -1.214959
v 1.113314 8.903564 -1.118179
v 1.105547 8.906782 -1.017299
v 1.043896 8.723004 -0.940195
v 1.088387 8.649304 -0.908828
v 1.151581 8.594016 -0.902199
v 1.078115 8.804040 -0.914554
v 1.144266 8.732930 -0.852054
v 1.220215 8.666481 -0.844087
v 1.133423 8.867523 -0.912321
v 1.210739 8.809228 -0.849370
v 1.286688 8.742779 -0.841403
v 1.053694 8.610251 -1.011833
v 1.061461 8.607034 -1.112712
v 1.129643 8.543802 -1.003866
v 1.137411 8.540585 -1.104745
v 1.399404 8.747589 -0.913607
v 1.441746 8.747394 -0.994860
v 1.448209 8.744717 -1.078797
v 1.418792 8.739557 -1.165416
v 1.350999 8.822911 -0.894146
v 1.401227 8.855529 -0.992899
v 1.408993 8.852311 -1.093778
v 1.374301 8.813257 -1.196783
v 1.287805 8.878200 -0.900775
v 1.325277 8.921978 -1.000866
v 1.333044 8.918759 -1.101745
v 1.311107 8.868546 -1.203412
v 1.209823 8.913457 -0.933494
v 1.213898 8.946741 -1.018762
v 1.220361 8.944064 -1.102698
v 1.229210 8.905425 -1.185304
v -2.458789 0.000000 2.264544
v -2.649591 3.828903 2.890265
v -2.458789 0.000000 -2.458789
v -2.649591 4.917579 -2.458789
v 2.458789 0.000000 2.264544
v 1.946698 3.828903 2.264376
v 2.458789 0.000000 -2.458789
v 2.458789 4.917579 -2.458789
v 0.283787 2.643144 -6.381911
v 0.283787 -0.002722 -6.381911
v 2.652122 -0.002722 -5.202252
v 2.652122 2.643144 -5.202252
v 3.721836 1.487050 -8.201715
v 3.481469 0.706696 -8.071952
v 3.812823 0.706696 -6.890510
v 4.089349 1.487050 -7.020273
v -1.165415 7.034537 2.515729
v -2.083546 7.034537 -0.215522
v 0.838508 7.034537 -1.133653
v 1.756638 7.034537 1.597599
v -0.291468 9.222196 2.083700
v -1.043468 9.222196 -0.153347
v 0.879641 9.404347 -1.170116
v 1.792644 9.404347 1.545882
v -2.662197 0.407573 2.404206
v -3.228020 1.541331 -2.458789
v 2.701649 1.541331 -2.458789
v 2.523009 0.407573 2.404206
v 0.079008 0.826579 -6.381911
v 2.934772 0.826579 -5.202252
v 3.934807 1.091287 -8.316689
v 4.334357 1.091287 -7.135247
v 2.162530 7.482031 -0.977026
v 2.713419 7.482031 0.661755
v 2.186393 8.903151 -1.003811
v 2.737282 8.903151 0.634970
v -2.458789 0.000000 -0.097123
v -2.747727 4.917579 0.000000
v 2.458789 0.000000 -0.097123
v 2.458789 4.917579 0.000000
v -1.759378 7.034537 1.150103
v 1.297573 6.817779 0.231973
v -0.697578 9.788921 0.965176
v 0.908188 9.875174 0.383953
v 2.523009 0.407573 -0.027292
v -2.688147 0.407573 -0.027292
v 2.700633 7.381339 -0.144667
v 2.250522 9.536305 -0.047283
v 5.686729 0.577223 -10.445587
v 5.102838 0.005455 -10.166953
v 5.410205 0.013702 -8.222514
v 6.092593 0.630959 -8.486996
v 6.597182 0.559896 -11.065914
v 6.420639 0.129702 -10.854292
v 7.175110 0.025844 -9.041194
v 7.419629 0.499831 -9.242898
v 4.642041 1.196953 -9.963460
v 5.801463 1.082129 -8.679577
v 4.724996 0.807912 -10.229800
v 5.912185 0.692401 -8.961885
v 6.237128 1.120145 -11.362369
v 7.369008 1.014706 -10.053351
v 6.143954 0.663607 -11.472203
v 7.299838 0.541476 -10.176290
v 4.637830 0.138473 1.797299
v 4.529877 -0.269100 1.695825
v 3.756962 0.138473 -0.374387
v 3.674307 -0.269100 -0.413492
v 5.889867 0.076065 -0.413656
v 5.760134 -0.331508 -0.454996
v 4.954049 0.076065 -1.139824
v 4.851192 -0.331508 -1.160309
v -3.839089 0.000000 -0.383050
v -5.523721 0.000000 1.272088
v -5.765900 0.407573 1.224873
v -4.049643 0.407573 -0.497716
v -5.740278 0.000000 -1.236959
v -6.465621 0.000000 -0.401938
v -6.557919 0.407573 -0.477923
v -5.812801 0.407573 -1.349815
v 2.704779 0.367933 0.252100
v 2.637844 -0.039640 0.210304
v 2.763876 -0.039640 1.698032
v 2.834537 0.367933 1.783818
v -3.100531 -0.020954 1.775843
v -2.938201 -0.020954 0.299335
v -3.307675 0.428528 1.854159
v -3.165746 0.428528 0.332844
v 0.855315 8.035497 -1.152519
v 1.773446 8.035497 1.578733
v -0.886808 8.280642 2.496864
v -1.804939 8.280642 -0.234388
v 2.172615 8.082618 -0.988346
v 2.723504 8.082618 0.650435
v 2.709548 8.251822 -0.154674
v -1.439297 8.573060 1.131238
v 2.715522 8.835013 -0.161379
v 2.334430 8.567627 -0.754008
v 2.336768 8.706902 -0.756633
v 2.558413 8.438840 -0.400999
v 2.559427 8.537829 -0.402137
v 2.728120 8.706902 0.407558
v 2.725781 8.567627 0.410183
v 2.717949 8.438840 0.073591
v 2.718963 8.537829 0.072453
v 2.166537 8.571691 -0.646308
v 2.168875 8.710965 -0.648933
v 2.390520 8.442904 -0.293299
v 2.391534 8.541893 -0.294437
v 2.528667 8.709767 0.411332
v 2.526329 8.570494 0.413957
v 2.518497 8.441707 0.077365
v 2.519511 8.540695 0.076227
vn -0.9924 0.0649 0.1047
vn 0.9710 -0.2153 0.1036
vn 0.9999 0.0142 0.0000
vn -0.4529 0.0446 -0.8904
vn 0.0843 0.8411 -0.5343
vn -0.7559 0.1140 -0.6447
vn 0.1766 0.9822 -0.0636
vn 0.7869 -0.4326 0.4400
vn 0.2370 0.9319 -0.2746
vn -0.8929 0.3795 0.2423
vn 0.2996 -0.0273 0.9537
vn -0.0883 0.6290 -0.7724
vn 0.0512 0.9196 0.3894
vn -0.6944 0.5537 0.4595
vn 0.2930 0.1055 0.9503
vn -0.3824 0.1551 -0.9109
vn 0.8052 0.1624 0.5704
vn -0.6691 0.3743 -0.6420
vn -0.7654 -0.3145 -0.5614
vn -0.4456 -0.0884 -0.8909
vn -0.4776 0.1731 -0.8614
vn 0.9947 0.1007 0.0225
vn -0.8901 -0.4558 -0.0076
vn 0.8452 -0.0167 -0.5342
vn 0.6988 0.0017 0.7153
vn 0.1220 -0.0171 -0.9924
vn 0.4385 0.8765 0.1986
vn 0.2409 0.8851 -0.3981
vn 0.9997 -0.0162 -0.0197
vn 0.9878 -0.1556 0.0000
vn -0.8192 0.5723 0.0367
vn -0.2178 0.9197 -0.3265
vn -0.9510 0.3041 0.0562
vn 0.9982 0.0387 0.0454
vn -0.9997 -0.0073 0.0218
vn 0.0561 0.9983 -0.0165
vn 0.2029 0.9768 -0.0688
vn 0.5489 -0.2551 0.7960
vn -0.3324 -0.9405 0.0704
vn 0.7727 -0.5238 -0.3587
vn 0.0279 -0.9991 -0.0333
vn 0.4537 -0.0046 0.8912
vn -0.5043 -0.0393 -0.8626
vn 0.6129 -0.3115 0.7261
vn -0.1760 -0.9821 0.0677
vn 0.7248 -0.0201 0.6887
vn -0.9053 -0.1478 -0.3983
vn 0.7524 0.0333 -0.6579
vn 0.0675 0.9974 0.0251
vn -0.1030 -0.9947 0.0019
vn -0.6087 0.3286 -0.7221
vn -0.5218 0.1797 -0.8339
vn 0.1500 0.9878 -0.0409
vn -0.0310 -0.2173 0.9756
vn 0.6090 -0.1143 -0.7849
vn 0.0289 0.9994 -0.0181
vn 0.8188 -0.3220 0.4752
vn 0.0000 1.0000 -0.0000
vn -0.2235 -0.1521 0.9628
vn -0.0100 0.9999 -0.0057
vn 0.6261 0.2501 -0.7386
vn -0.7248 -0.2912 -0.6244
vn 0.4197 -0.1059 -0.9015
vn -0.8530 -0.2838 0.4380
vn 0.8478 -0.2670 0.4583
vn 0.1553 0.9879 -0.0051
vn 0.8463 -0.0637 -0.5290
vn -0.6036 -0.2297 -0.7635
vn 0.0371 0.9993 0.0011
vn -0.5620 -0.4463 0.6964
vn -0.9534 0.2079 0.2185
vn 0.9998 -0.0132 -0.0171
vn 0.1244 -0.0208 -0.9920
vn 0.6972 0.0053 0.7169
vn 0.8405 -0.0187 -0.5416
vn -0.3114 0.0250 -0.9500
vn 0.3114 -0.0250 0.9500
vn -0.8961 0.1980 0.3973
vn 0.7270 0.5491 -0.4122
vn 0.8261 0.5592 -0.0704
vn 0.8454 -0.0243 -0.5336
vn 0.8472 -0.0148 -0.5310
vn 0.8419 -0.0230 -0.5391
vn 0.9996 -0.0119 -0.0248
vn 0.9995 -0.0173 -0.0254
vn 0.9995 -0.0106 -0.0281
vn 0.7941 0.6078 0.0000
vn 0.0638 -0.0452 0.9969
vn 0.0000 -1.0000 0.0000
vn 0.8264 0.5287 -0.1939
vn -0.0001 -1.0000 0.0008
vn 0.1669 -0.9673 -0.1909
vn 0.3148 -0.9087 -0.2741
vn 0.0000 -0.3242 0.9460
vn -0.0104 -0.9999 -0.0061
vn 0.4136 -0.9094 0.0431
vn 0.9622 0.2612 0.0768
vn -0.1524 -0.9874 0.0416
vn -0.0295 -0.9994 0.0185
vn -0.1589 -0.9873 0.0052
vn 0.0372 -0.9993 0.0016
vn 0.9403 0.1704 0.2946
vn 0.1319 0.2094 0.9689
vn 0.8229 -0.5224 -0.2235
vn 0.5758 -0.5790 -0.5773
vn 0.2265 -0.5125 -0.8282
vn 0.9554 -0.1109 -0.2738
vn 0.7059 -0.1199 -0.6981
vn 0.2855 -0.0998 -0.9532
vn 0.9023 0.3208 -0.2880
vn 0.6650 0.3682 -0.6498
vn 0.3059 0.3307 -0.8928
vn -0.3012 -0.4632 -0.8335
vn -0.6616 -0.4634 -0.5895
vn -0.9009 -0.3614 -0.2405
vn -0.2803 -0.0470 -0.9588
vn -0.7021 0.0116 -0.7120
vn -0.9538 0.0674 -0.2927
vn -0.2218 0.3800 -0.8980
vn -0.5724 0.4838 -0.6620
vn -0.8214 0.4818 -0.3051
vn -0.9023 -0.3208 0.2880
vn -0.6650 -0.3682 0.6497
vn -0.3059 -0.3307 0.8928
vn -0.9554 0.1109 0.2738
vn -0.7059 0.1199 0.6981
vn -0.2855 0.0998 0.9532
vn -0.8229 0.5224 0.2235
vn -0.5758 0.5790 0.5773
vn -0.2265 0.5125 0.8282
vn 0.2218 -0.3800 0.8980
vn 0.5724 -0.4838 0.6620
vn 0.8214 -0.4818 0.3051
vn 0.2803 0.0470 0.9588
vn 0.7021 -0.0116 0.7120
vn 0.9538 -0.0674 0.2927
vn 0.3012 0.4632 0.8335
vn 0.6616 0.4634 0.5895
vn 0.9009 0.3614 0.2405
vn -0.0764 -0.7477 0.6596
vn -0.4189 -0.8153 0.3998
vn -0.6727 -0.7379 0.0548
vn 0.2528 -0.8780 0.4064
vn -0.0935 -0.9927 0.0760
vn -0.4171 -0.8669 -0.2729
vn 0.5232 -0.8496 0.0667
vn 0.2546 -0.9297 -0.2662
vn -0.0731 -0.8397 -0.5381
vn 0.6727 0.7379 -0.0548
vn 0.4189 0.8153 -0.3998
vn 0.0764 0.7477 -0.6596
vn 0.4171 0.8669 0.2729
vn 0.0935 0.9927 -0.0760
vn -0.2528 0.8780 -0.4064
vn 0.0731 0.8397 0.5381
vn -0.2546 0.9297 0.2663
vn -0.5232 0.8496 -0.0667
vn 0.2884 -0.8314 0.4749
vn 0.3461 -0.9365 0.0565
vn 0.3536 -0.8584 -0.3716
vn 0.6228 -0.5617 0.5446
vn 0.7503 -0.6564 0.0787
vn 0.6960 -0.5921 -0.4062
vn 0.8462 -0.1912 0.4974
vn 0.9727 -0.2173 0.0818
vn 0.9113 -0.2182 -0.3490
vn 0.1011 -0.6243 -0.7746
vn -0.2458 -0.3875 -0.8885
vn -0.5362 -0.0667 -0.8415
vn 0.4254 -0.3411 -0.8383
vn 0.0767 -0.0318 -0.9965
vn -0.2905 0.2852 -0.9134
vn 0.6589 0.0159 -0.7521
vn 0.3807 0.3316 -0.8632
vn 0.0216 0.5735 -0.8189
vn -0.8462 0.1912 -0.4974
vn -0.9727 0.2173 -0.0818
vn -0.9113 0.2182 0.3490
vn -0.6228 0.5617 -0.5446
vn -0.7503 0.6564 -0.0787
vn -0.6960 0.5921 0.4062
vn -0.2884 0.8314 -0.4749
vn -0.3461 0.9365 -0.0565
vn -0.3536 0.8584 0.3716
vn -0.6589 -0.0159 0.7521
vn -0.3807 -0.3316 0.8632
vn -0.0216 -0.5735 0.8189
vn -0.4254 0.3411 0.8383
vn -0.0767 0.0318 0.9965
vn 0.2905 -0.2852 0.9134
vn -0.1011 0.6243 0.7746
vn 0.2458 0.3875 0.8885
vn 0.5362 0.0667 0.8415
vn -0.8763 -0.3103 0.3686
vn -0.9350 -0.3493 -0.0609
vn -0.8111 -0.3373 -0.4779
vn -0.6137 -0.6473 0.4521
vn -0.6567 -0.7537 -0.0265
vn -0.5405 -0.6776 -0.4987
vn -0.2390 -0.8679 0.4355
vn -0.2192 -0.9756 0.0142
vn -0.1738 -0.8949 -0.4110
vn 0.8111 0.3373 0.4779
vn 0.9350 0.3493 0.0608
vn 0.8763 0.3103 -0.3686
vn 0.5405 0.6776 0.4987
vn 0.6567 0.7537 0.0265
vn 0.6137 0.6473 -0.4521
vn 0.1738 0.8949 0.4110
vn 0.2192 0.9756 -0.0142
vn 0.2390 0.8679 -0.4355
vn -0.0043 -0.8927 0.4505
vn -0.5400 -0.0041 -0.8417
vn 0.8415 -0.0204 -0.5398
vn 0.9997 -0.0144 -0.0189
vn 0.5400 0.0068 0.8416
vn 0.0067 0.9339 -0.3575
vn -0.2182 -0.9270 -0.3051
vn 0.1754 0.9555 0.2373
vn 0.0191 0.0113 0.9998
vn -0.0192 -0.0185 -0.9996
usemtl 455A64
s off
f 158//1 150//1 116//1 138//1
f 139//2 119//2 123//2 142//2
f 157//3 152//3 140//3
f 141//4 121//4 125//4 143//4
f 116//5 120//5 124//5 121//5
f 138//6 116//6 121//6 141//6
f 125//7 128//7 170//7 169//7
f 142//8 123//8 127//8 144//8
f 121//9 124//9 128//9 125//9
f 150//10 114//10 129//10 153//10
f 114//11 132//11 129//11
f 120//12 116//12 130//12 131//12
f 156//13 155//13 133//13 136//13
f 208//14 203//14 133//14 155//14
f 203//15 202//15 136//15 133//15
f 201//16 204//16 134//16 135//16
f 124//17 142//17 144//17 128//17
f 126//18 143//18 161//18 162//18
f 115//19 138//19 141//19 122//19
f 122//20 141//20 143//20 126//20
f 194//21 193//21 179//21 180//21
f 120//22 139//22 142//22 124//22
f 149//23 158//23 138//23 115//23
f 147//24 209//24 213//24 211//24
f 202//25 132//25 146//25 206//25
f 201//26 135//26 147//26 205//26
f 156//27 136//27 148//27 160//27
f 135//28 156//28 160//28 147//28
f 206//29 207//29 216//29 215//29
f 119//30 139//30 157//30 151//30
f 204//31 208//31 155//31 134//31
f 135//32 134//32 155//32 156//32
f 116//33 150//33 153//33 130//33
f 139//34 120//34 152//34 157//34
f 137//35 114//35 150//35 158//35
f 161//36 164//36 168//36 165//36
f 143//37 144//37 164//37 161//37
f 144//38 127//38 163//38 164//38
f 127//39 126//39 162//39 163//39
f 166//40 165//40 168//40 167//40
f 163//41 162//41 166//41 167//41
f 164//42 163//42 167//42 168//42
f 162//43 161//43 165//43 166//43
f 170//44 172//44 176//44 174//44
f 144//45 143//45 171//45 172//45
f 128//46 144//46 172//46 170//46
f 143//47 125//47 169//47 171//47
f 175//48 173//48 174//48 176//48
f 169//49 170//49 174//49 173//49
f 172//50 171//50 175//50 176//50
f 171//51 169//51 173//51 175//51
f 180//52 179//52 183//52 184//52
f 193//53 196//53 177//53 179//53
f 196//54 195//54 178//54 177//54
f 184//55 183//55 181//55 182//55
f 179//56 177//56 181//56 183//56
f 177//57 178//57 182//57 181//57
f 187//58 188//58 192//58 191//58
f 197//59 199//59 187//59 186//59
f 199//60 200//60 188//60 187//60
f 200//61 198//61 185//61 188//61
f 190//62 191//62 192//62 189//62
f 188//63 185//63 189//63 192//63
f 186//64 187//64 191//64 190//64
f 140//65 117//65 195//65 196//65
f 157//66 140//66 196//66 193//66
f 151//67 157//67 193//67 194//67
f 158//68 149//68 198//68 200//68
f 137//69 158//69 200//69 199//69
f 113//70 137//70 199//70 197//70
f 130//71 153//71 208//71 204//71
f 146//72 159//72 207//72 206//72
f 131//73 201//73 205//73 145//73
f 136//74 202//74 206//74 148//74
f 159//75 145//75 205//75 207//75
f 131//76 130//76 204//76 201//76
f 129//77 132//77 202//77 203//77
f 153//78 129//78 203//78 208//78
f 209//79 147//79 160//79
f 148//80 209//80 160//80
f 205//81 147//81 211//81 210//81
f 209//82 207//82 212//82 213//82
f 207//83 205//83 210//83 212//83
f 209//84 148//84 214//84 217//84
f 148//85 206//85 215//85 214//85
f 207//86 209//86 217//86 216//86
f 131//87 152//87 120//87
usemtl 78909C
f 140//88 118//88 114//88 137//88
f 149//89 151//89 117//89 113//89
f 152//90 131//90 154//90
f 119//91 115//91 122//91 123//91
f 123//92 122//92 126//92 127//92
f 154//93 131//93 145//93 159//93
f 117//94 140//94 137//94 113//94
f 198//95 197//95 186//95 185//95
f 132//96 154//96 159//96 146//96
f 118//97 152//97 154//97 132//97
f 115//89 119//89 151//89 149//89
f 195//98 194//98 180//98 178//98
f 178//99 180//99 184//99 182//99
f 185//89 186//89 190//89 189//89
f 117//100 151//100 194//100 195//100
f 149//101 113//101 197//101 198//101
f 140//102 152//102 118//102
f 132//103 114//103 118//103
usemtl 1A1A1A
f 1//104 2//104 5//104 4//104
f 2//105 3//105 6//105 5//105
f 3//106 10//106 13//106 6//106
f 4//107 5//107 8//107 7//107
f 5//108 6//108 9//108 8//108
f 6//109 13//109 16//109 9//109
f 7//110 8//110 42//110 41//110
f 8//111 9//111 43//111 42//111
f 9//112 16//112 44//112 43//112
f 10//113 11//113 14//113 13//113
f 11//114 12//114 15//114 14//114
f 12//115 19//115 22//115 15//115
f 13//116 14//116 17//116 16//116
f 14//117 15//117 18//117 17//117
f 15//118 22//118 25//118 18//118
f 16//119 17//119 48//119 44//119
f 17//120 18//120 52//120 48//120
f 18//121 25//121 56//121 52//121
f 19//122 20//122 23//122 22//122
f 20//123 21//123 24//123 23//123
f 21//124 28//124 31//124 24//124
f 22//125 23//125 26//125 25//125
f 23//126 24//126 27//126 26//126
f 24//127 31//127 34//127 27//127
f 25//128 26//128 55//128 56//128
f 26//129 27//129 54//129 55//129
f 27//130 34//130 53//130 54//130
f 28//131 29//131 32//131 31//131
f 29//132 30//132 33//132 32//132
f 30//133 1//133 4//133 33//133
f 31//134 32//134 35//134 34//134
f 32//135 33//135 36//135 35//135
f 33//136 4//136 7//136 36//136
f 34//137 35//137 49//137 53//137
f 35//138 36//138 45//138 49//138
f 36//139 7//139 41//139 45//139
f 28//140 21//140 37//140 29//140
f 21//141 20//141 38//141 37//141
f 20//142 19//142 12//142 38//142
f 29//143 37//143 39//143 30//143
f 37//144 38//144 40//144 39//144
f 38//145 12//145 11//145 40//145
f 30//146 39//146 2//146 1//146
f 39//147 40//147 3//147 2//147
f 40//148 11//148 10//148 3//148
f 41//149 42//149 46//149 45//149
f 42//150 43//150 47//150 46//150
f 43//151 44//151 48//151 47//151
f 45//152 46//152 50//152 49//152
f 46//153 47//153 51//153 50//153
f 47//154 48//154 52//154 51//154
f 49//155 50//155 54//155 53//155
f 50//156 51//156 55//156 54//156
f 51//157 52//157 56//157 55//157
f 57//158 58//158 61//158 60//158
f 58//159 59//159 62//159 61//159
f 59//160 66//160 69//160 62//160
f 60//161 61//161 64//161 63//161
f 61//162 62//162 65//162 64//162
f 62//163 69//163 72//163 65//163
f 63//164 64//164 98//164 97//164
f 64//165 65//165 99//165 98//165
f 65//166 72//166 100//166 99//166
f 66//167 67//167 70//167 69//167
f 67//168 68//168 71//168 70//168
f 68//169 75//169 78//169 71//169
f 69//170 70//170 73//170 72//170
f 70//171 71//171 74//171 73//171
f 71//172 78//172 81//172 74//172
f 72//173 73//173 104//173 100//173
f 73//174 74//174 108//174 104//174
f 74//175 81//175 112//175 108//175
f 75//176 76//176 79//176 78//176
f 76//177 77//177 80//177 79//177
f 77//178 84//178 87//178 80//178
f 78//179 79//179 82//179 81//179
f 79//180 80//180 83//180 82//180
f 80//181 87//181 90//181 83//181
f 81//182 82//182 111//182 112//182
f 82//183 83//183 110//183 111//183
f 83//184 90//184 109//184 110//184
f 84//185 85//185 88//185 87//185
f 85//186 86//186 89//186 88//186
f 86//187 57//187 60//187 89//187
f 87//188 88//188 91//188 90//188
f 88//189 89//189 92//189 91//189
f 89//190 60//190 63//190 92//190
f 90//191 91//191 105//191 109//191
f 91//192 92//192 101//192 105//192
f 92//193 63//193 97//193 101//193
f 84//194 77//194 93//194 85//194
f 77//195 76//195 94//195 93//195
f 76//196 75//196 68//196 94//196
f 85//197 93//197 95//197 86//197
f 93//198 94//198 96//198 95//198
f 94//199 68//199 67//199 96//199
f 86//200 95//200 58//200 57//200
f 95//201 96//201 59//201 58//201
f 96//202 67//202 66//202 59//202
f 97//203 98//203 102//203 101//203
f 98//204 99//204 103//204 102//204
f 99//205 100//205 104//205 103//205
f 101//206 102//206 106//206 105//206
f 102//207 103//207 107//207 106//207
f 103//208 104//208 108//208 107//208
f 105//209 106//209 110//209 109//209
f 106//210 107//210 111//210 110//210
f 107//211 108//211 112//211 111//211
f 217//212 214//212 222//212 225//212
f 213//213 212//213 220//213 221//213
f 220//214 218//214 219//214 221//214
f 223//215 224//215 225//215 222//215
f 210//216 211//216 219//216 218//216
f 215//217 216//217 224//217 223//217
f 211//218 213//218 221//218 219//218
f 212//219 210//219 218//219 220//219
f 216//220 217//220 225//220 224//220
f 214//221 215//221 223//221 222//221
